<svg width="104" height="104" viewBox="0 0 104 104" fill="none" xmlns="http://www.w3.org/2000/svg">
<g clip-path="url(#clip0_212_2)">
<rect width="104" height="104" fill="#6C63FF"/>
<path d="M37.014 71.086C35.4087 71.086 34.2907 70.2547 33.66 68.592C33.0293 66.9293 32.5133 64.6933 32.112 61.884L31.854 59.734C30.994 55.1473 30.306 50.5893 29.79 46.06C29.274 41.4733 28.758 35.9407 28.242 29.462L27.726 23.098C24.286 23.1553 19.384 23.012 13.02 22.668L11.3 22.582C10.4973 22.5247 9.924 22.152 9.58 21.464C9.29333 20.7187 9.15 19.7153 9.15 18.454H15.084C25.06 18.454 34.0613 18.8267 42.088 19.572C50.1147 20.3173 54.128 21.8367 54.128 24.13C54.128 24.7607 54.0133 25.1907 53.784 25.42C53.612 25.6493 53.2107 25.764 52.58 25.764C50.2867 25.592 46.732 25.1047 41.916 24.302C40.8267 24.13 39.508 23.9293 37.96 23.7C36.412 23.4707 34.6633 23.2413 32.714 23.012C32.714 31.3253 33.9467 44.1107 36.412 61.368C36.5267 62.228 36.928 63.4607 37.616 65.066C37.9027 65.754 38.1607 66.4993 38.39 67.302C38.6767 68.0473 38.82 68.7353 38.82 69.366C38.82 70.1687 38.7053 70.656 38.476 70.828C38.2467 71 37.96 71.086 37.616 71.086C37.3293 71.086 37.1287 71.086 37.014 71.086Z" fill="white"/>
<path d="M49.544 81.84C49.544 81.152 49.6013 80.636 49.716 80.292C49.888 79.8907 50.2607 79.69 50.834 79.69C51.35 79.69 51.9233 79.8047 52.554 80.034C53.242 80.2633 53.9013 80.5213 54.532 80.808C56.1373 81.496 57.5707 82.012 58.832 82.356C60.1507 82.7 61.7847 82.872 63.734 82.872C70.8433 82.872 76.1753 81.1807 79.73 77.798C83.342 74.4153 85.148 70.0007 85.148 64.554C85.148 59.6807 83.772 55.4093 81.02 51.74C78.268 48.0133 74.7707 45.0893 70.528 42.968C66.3427 40.8467 62.0713 39.5853 57.714 39.184L62.616 75.562C62.616 76.5367 62.4727 77.3393 62.186 77.97C61.9567 78.6007 61.3833 78.916 60.466 78.916C60.2367 79.0307 59.8067 77.4827 59.176 74.272C58.5453 71.0613 57.6853 66.3313 56.596 60.082C55.3347 52.8007 54.36 47.4113 53.672 43.914C52.984 40.3593 52.4393 38.324 52.038 37.808C47.2793 37.808 43.3807 38.066 40.342 38.582C37.3033 39.0407 34.9813 39.5853 33.376 40.216C31.7707 40.8467 31.1113 41.162 31.398 41.162C31.1113 41.0473 30.9107 40.8753 30.796 40.646C30.6813 40.3593 30.5953 39.958 30.538 39.442C30.4233 38.926 30.3373 38.5533 30.28 38.324C30.28 36.948 31.5127 35.8587 33.978 35.056C36.4433 34.2533 39.0233 33.7087 41.718 33.422C44.47 33.1353 46.3047 32.992 47.222 32.992C53.3567 32.992 59.7493 34.2533 66.4 36.776C73.0507 39.2413 78.6407 42.882 83.17 47.698C87.6993 52.514 89.964 58.2187 89.964 64.812C89.964 69.7427 88.7313 73.9567 86.266 77.454C83.8007 80.894 80.5613 83.5027 76.548 85.28C72.592 87.0573 68.3493 87.946 63.82 87.946C60.1507 87.946 56.854 87.3727 53.93 86.226C51.006 85.0793 49.544 83.6173 49.544 81.84Z" fill="white"/>
</g>
<defs>
<clipPath id="clip0_212_2">
<rect width="104" height="104" fill="white"/>
</clipPath>
</defs>
</svg>
